<svg width="20" height="25" viewBox="0 0 20 25" fill="none" xmlns="http://www.w3.org/2000/svg">
<path fill-rule="evenodd" clip-rule="evenodd" d="M15.1287 2.24908C15.6432 1.73458 15.6432 0.900388 15.1287 0.385881C14.6142 -0.128627 13.78 -0.128627 13.2655 0.385881L10.6305 3.02084C10.116 3.53534 10.116 4.36953 10.6305 4.88404C11.1451 5.39854 11.9792 5.39854 12.4937 4.88404L15.1287 2.24908ZM12.4265 6.50557C13.2064 6.35742 14.0088 6.37546 14.7813 6.5585C15.5538 6.74156 16.279 7.08549 16.9094 7.56786C17.5399 8.05023 18.0616 8.66017 18.4403 9.35786C18.5654 9.58831 18.581 9.86259 18.4828 10.1057C18.3846 10.3489 18.183 10.5354 17.933 10.6144C17.2852 10.819 16.7195 11.2244 16.3174 11.772C15.9155 12.3195 15.6982 12.9807 15.697 13.66V13.6738C15.6835 14.452 15.9552 15.2083 16.4613 15.7996C16.9676 16.3909 17.6727 16.7762 18.4438 16.8828C18.6915 16.9171 18.913 17.0554 19.0525 17.2631C19.1922 17.4708 19.2364 17.7281 19.1744 17.9705C18.661 19.978 17.6216 21.8123 16.1632 23.2844C16.1499 23.2979 16.1358 23.3111 16.1214 23.3239C15.3687 23.9904 14.404 24.3684 13.3988 24.391C12.401 24.4135 11.4274 24.0845 10.6481 23.4616C10.4296 23.3039 10.1669 23.219 9.89714 23.219C9.62363 23.219 9.35732 23.3063 9.137 23.4683C8.32521 24.0812 7.32241 24.3865 6.30667 24.3301C5.28898 24.2735 4.32445 23.8576 3.58499 23.156C3.5734 23.1451 3.56212 23.1336 3.55116 23.122C1.64122 21.1014 0.444298 18.5119 0.142227 15.7484C-0.223417 13.684 0.120778 11.5563 1.11906 9.71215C1.49347 8.97881 2.01628 8.3313 2.65436 7.81077C3.2956 7.28764 4.03908 6.90431 4.83714 6.68534C5.6352 6.46638 6.4702 6.41661 7.28862 6.53923C8.09964 6.66075 8.8766 6.94889 9.57063 7.38542C9.68305 7.44757 9.80948 7.48022 9.93808 7.48022C10.0618 7.48022 10.1836 7.44997 10.2928 7.3923C10.9351 6.95283 11.6616 6.65086 12.4265 6.50557Z" fill="#3E3E3E"/>
</svg>
