<svg width="21" height="22" viewBox="0 0 21 22" fill="none" xmlns="http://www.w3.org/2000/svg">
<path d="M17.4966 9.19281H11.8961C11.7873 9.19278 11.6795 9.21359 11.5792 9.254C11.4788 9.29441 11.3879 9.35363 11.3117 9.42817C11.2355 9.50271 11.1755 9.59109 11.1353 9.68813C11.0952 9.78516 11.0756 9.88891 11.0777 9.9933V12.1639C11.0777 12.3721 11.1639 12.5718 11.3174 12.719C11.4709 12.8662 11.6791 12.9489 11.8961 12.9489H15.5709C15.5825 13.5439 15.4633 14.1346 15.2208 14.6824C14.9784 15.2302 14.6183 15.7228 14.164 16.1281C13.7098 16.5333 13.1715 16.8422 12.5844 17.0345C11.9973 17.2268 11.3746 17.2981 10.7568 17.2439C7.16217 17.2439 5.42906 14.319 5.42906 10.9939C5.42906 7.66881 7.29055 4.74395 10.7568 4.74395C12.287 4.69523 13.7865 5.16381 14.9933 6.06783C15.0897 6.12838 15.1989 6.16785 15.313 6.18344C15.4272 6.19904 15.5433 6.19037 15.6536 6.15806C15.7638 6.12575 15.8654 6.07057 15.9509 5.99647C16.0365 5.92235 16.104 5.83109 16.1486 5.72917L17.1596 3.51243C17.2427 3.34904 17.2643 3.16304 17.2203 2.98616C17.1765 2.80928 17.0699 2.65251 16.9189 2.54261C15.0788 1.48704 12.9644 0.953285 10.821 1.00321C4.97974 0.987813 1 5.34432 1 10.9939C1 16.6435 4.99578 21 10.7568 21C16.5177 21 20 17.0591 20 11.7636C20 10.0703 19.2939 9.19281 17.4966 9.19281Z" stroke="#3E3E3E" stroke-width="2" stroke-linecap="round" stroke-linejoin="round"/>
</svg>
