<svg width="88" height="88" viewBox="0 0 88 88" fill="none" xmlns="http://www.w3.org/2000/svg">
<path d="M43.8571 84.7142C66.4222 84.7142 84.7142 66.4222 84.7142 43.8571C84.7142 21.2924 66.4222 3 43.8571 3C21.2924 3 3 21.2924 3 43.8571C3 66.4222 21.2924 84.7142 43.8571 84.7142Z" stroke="black" stroke-width="6" stroke-linecap="round" stroke-linejoin="round"/>
<path d="M47 56.4285V32.6165C47 31.8815 47.5958 31.2856 48.3308 31.2856C48.8042 31.2856 49.2419 31.5371 49.4804 31.9459L55.9007 42.9522C56.2276 43.5125 56.8275 43.8571 57.4762 43.8571C58.1249 43.8571 58.7248 43.5125 59.0517 42.9522L65.4718 31.9459C65.7107 31.5371 66.1482 31.2856 66.6215 31.2856C67.3563 31.2856 67.9522 31.8815 67.9522 32.6165V56.4285" stroke="black" stroke-width="6" stroke-linecap="round" stroke-linejoin="round"/>
<path d="M28.1428 31.2856V56.4285" stroke="black" stroke-width="6" stroke-linecap="round" stroke-linejoin="round"/>
<path d="M18.7143 31.2856H37.5714" stroke="black" stroke-width="6" stroke-linecap="round" stroke-linejoin="round"/>
</svg>
